<svg width="99" height="98" viewBox="0 0 99 98" fill="none" xmlns="http://www.w3.org/2000/svg">
<g filter="url(#filter0_b_1295_11)">
<rect x="0.566406" width="98" height="98" rx="24" fill="white" fill-opacity="0.5"/>
<rect x="1.56641" y="1" width="96" height="96" rx="23" stroke="url(#paint0_linear_1295_11)" stroke-opacity="0.6" stroke-width="2"/>
</g>
<path d="M34 64C34 62.6739 34.5268 61.4021 35.4645 60.4645C36.4021 59.5268 37.6739 59 39 59H66" stroke="#EFAB18" stroke-width="4" stroke-linecap="round" stroke-linejoin="round"/>
<path d="M39 29H66V69H39C37.6739 69 36.4021 68.4732 35.4645 67.5355C34.5268 66.5979 34 65.3261 34 64V34C34 32.6739 34.5268 31.4021 35.4645 30.4645C36.4021 29.5268 37.6739 29 39 29V29Z" stroke="#EFAB18" stroke-width="4" stroke-linecap="round" stroke-linejoin="round"/>
<defs>
<filter id="filter0_b_1295_11" x="-28.4936" y="-29.06" width="156.12" height="156.12" filterUnits="userSpaceOnUse" color-interpolation-filters="sRGB">
<feFlood flood-opacity="0" result="BackgroundImageFix"/>
<feGaussianBlur in="BackgroundImage" stdDeviation="14.53"/>
<feComposite in2="SourceAlpha" operator="in" result="effect1_backgroundBlur_1295_11"/>
<feBlend mode="normal" in="SourceGraphic" in2="effect1_backgroundBlur_1295_11" result="shape"/>
</filter>
<linearGradient id="paint0_linear_1295_11" x1="39.1562" y1="46.9" x2="98.3616" y2="110.869" gradientUnits="userSpaceOnUse">
<stop stop-color="white"/>
<stop offset="1" stop-color="#F3F3F3" stop-opacity="0.42"/>
</linearGradient>
</defs>
</svg>
